<svg width="1989" height="1473" viewBox="0 0 1989 1473" fill="none" xmlns="http://www.w3.org/2000/svg">
<path d="M1724.72 688.252C1750.6 713.829 1756.84 752.697 1758.29 797.528C1758.7 810.509 1758.72 823.662 1758.74 837.013C1758.75 846.772 1758.76 856.638 1758.93 866.62C1759.27 886.897 1760.27 907.24 1763.31 926.767C1730.46 914.658 1694.11 912.902 1659.81 911.246C1654.16 910.973 1648.57 910.703 1643.06 910.389C1600.5 907.971 1562.95 903.018 1537.06 877.427C1510.41 851.087 1489.54 811.84 1482.56 772.1C1475.58 732.377 1482.57 692.943 1510.42 665.174C1538.32 637.369 1578.14 629.688 1618.27 635.845C1658.42 642.005 1698.1 661.944 1724.72 688.252Z" stroke="white" stroke-width="10"/>
<path d="M1505.34 661.337C1494.46 697.552 1457.66 718.241 1423.44 708.115C1389.22 697.989 1369.84 660.677 1380.71 624.462C1391.59 588.247 1428.39 567.559 1462.61 577.685C1496.83 587.81 1516.21 625.123 1505.34 661.337Z" stroke="white" stroke-width="10"/>
<path d="M1764.88 915.826L1797.06 969.494L1752.39 925.515L1764.88 915.826Z" fill="white" stroke="white"/>
<path d="M1409.9 582.334C1411.31 584.708 1414.37 585.491 1416.75 584.084C1419.14 582.677 1419.93 579.612 1418.52 577.238L1409.9 582.334ZM1418.52 577.238L1407.59 558.748L1398.97 563.844L1409.9 582.334L1418.52 577.238ZM1407.59 558.748C1380.74 513.317 1321.08 499.927 1277.19 529.478L1282.77 537.761C1321.88 511.428 1375.04 523.36 1398.97 563.844L1407.59 558.748Z" fill="white"/>
<path d="M1382.27 614.297L1366.59 595.859C1336.13 560.036 1279.77 563.403 1253.89 602.592V602.592" stroke="white" stroke-width="10" stroke-linecap="round"/>
<path d="M1286.55 543.55C1285.23 551.187 1277.32 556.288 1268.81 554.831C1260.3 553.375 1254.56 545.941 1255.89 538.304C1257.22 530.666 1265.12 525.565 1273.64 527.022C1282.15 528.478 1287.88 535.913 1286.55 543.55Z" fill="white" stroke="white"/>
<path d="M1264.65 617.523C1263.2 625.909 1254.97 631.531 1246.24 630.038C1237.52 628.545 1231.66 620.513 1233.12 612.126C1234.57 603.739 1242.8 598.118 1251.53 599.611C1260.25 601.104 1266.11 609.136 1264.65 617.523Z" fill="white" stroke="white"/>
<path d="M1601.97 653.987C1611.19 643.214 1626.14 639.224 1639.52 643.972L1671 655.154L1511.25 837.168L1508.41 832.64L1502.61 821.763L1495.59 804.839L1494.33 801.344C1490.95 791.955 1492.89 781.475 1499.41 773.859L1601.97 653.987Z" fill="#FFD53F"/>
<path d="M1616.49 896.256C1612.84 900.357 1607.59 902.695 1602.09 902.664V902.664C1600.63 902.656 1599.18 902.477 1597.77 902.131L1586.62 899.4C1579.28 897.601 1572.14 895.089 1565.3 891.9L1558.84 888.888L1726.73 696.136L1730.88 700.89V700.89C1734.87 706.969 1738.36 713.358 1741.32 719.996L1742.43 722.497C1743.77 725.508 1744.86 728.627 1745.67 731.821L1745.83 732.453C1748.1 741.383 1745.77 750.863 1739.62 757.783L1616.49 896.256Z" fill="#FFD53F"/>
<path d="M1447.45 643.859C1445.54 654.889 1434.58 662.263 1422.93 660.271C1411.29 658.278 1403.45 647.688 1405.37 636.657C1407.28 625.626 1418.24 618.252 1429.89 620.245C1441.53 622.237 1449.37 632.828 1447.45 643.859Z" fill="white" stroke="white"/>
<path d="M1428.59 646.021C1427.76 650.765 1422.82 653.962 1417.47 653.046C1412.11 652.129 1408.53 647.475 1409.36 642.731C1410.18 637.987 1415.12 634.79 1420.48 635.707C1425.84 636.623 1429.41 641.278 1428.59 646.021Z" fill="black" stroke="white"/>
<path d="M1610.05 633.492V633.492C1589.74 600.096 1585.7 559.334 1599.06 522.66L1599.75 520.766L1607.69 504.549C1618.86 481.729 1642.5 467.666 1667.96 468.7V468.7C1672.82 468.897 1677.64 469.663 1682.32 470.982L1686.63 472.196C1709.38 478.609 1728.88 493.353 1741.22 513.478L1742.26 515.188C1746.31 521.787 1749.63 528.804 1752.16 536.114L1755.18 544.824C1767.74 581.076 1748.91 620.648 1712.84 633.832V633.832C1707.5 635.782 1702.04 631.263 1702.96 625.671L1704.05 619.088C1709.57 585.776 1733.56 558.493 1765.95 548.693L1793.45 540.372C1804.01 537.176 1814.96 535.394 1826 535.075L1829.73 534.967C1836.51 534.77 1843.29 535.248 1849.98 536.392V536.392C1873.56 540.426 1893.76 555.541 1904.24 576.994L1909.47 587.687L1910.54 590.614C1920.92 619.052 1909.78 650.82 1883.91 666.571V666.571C1847.32 688.845 1806.34 702.982 1763.76 708.019L1741.01 710.71" stroke="white" stroke-width="10" stroke-linecap="round"/>
<path d="M925.87 270.979C907.556 283.519 899.006 306.76 892.523 335.123C890.648 343.328 889.008 351.63 887.338 360.089C886.112 366.299 884.869 372.593 883.503 378.996C880.966 390.894 878.07 402.817 874.23 414.15C895.207 411.304 916.847 414.684 937.013 417.833C940.486 418.376 943.916 418.911 947.291 419.407C973.623 423.276 996.467 424.726 1014.8 412.176C1034.02 399.017 1051.41 377.004 1060.49 352.949C1069.57 328.92 1070.14 303.586 1057.01 282.998C1043.85 262.368 1021.12 252.596 996.25 251.443C971.357 250.289 945.05 257.847 925.87 270.979Z" stroke="white" stroke-width="10"/>
<path d="M1063.99 279.982C1066.04 303.714 1085.24 320.558 1106.09 318.576C1126.94 316.595 1142.93 296.406 1140.88 272.674C1138.83 248.943 1119.64 232.099 1098.79 234.08C1077.94 236.062 1061.94 256.25 1063.99 279.982Z" stroke="white" stroke-width="10"/>
<path d="M871.961 409.514L846.703 438.363L878.111 416.949L871.961 409.514Z" fill="white" stroke="white"/>
<path d="M1131.68 243.075C1129.87 245.165 1126.72 245.396 1124.63 243.591C1122.54 241.786 1122.31 238.629 1124.12 236.539L1131.68 243.075ZM1124.12 236.539L1133.23 225.999L1140.8 232.536L1131.68 243.075L1124.12 236.539ZM1133.23 225.999C1155.68 200.037 1195.62 199.112 1219.2 224.008L1211.94 230.888C1192.43 210.286 1159.37 211.051 1140.8 232.536L1133.23 225.999Z" fill="white"/>
<path d="M1143.08 265.828L1155.08 255.975C1177.75 237.357 1212.13 246.834 1222.87 274.663V274.663" stroke="white" stroke-width="10" stroke-linecap="round"/>
<path d="M1210.5 232.94C1210.36 237.877 1214.47 242.043 1219.74 242.192C1225.01 242.342 1229.35 238.416 1229.49 233.48C1229.63 228.543 1225.52 224.377 1220.26 224.228C1214.99 224.078 1210.65 228.004 1210.5 232.94Z" fill="white" stroke="white"/>
<path d="M1214.62 282.807C1214.47 288.247 1218.72 292.775 1224.11 292.928C1229.5 293.081 1234.01 288.802 1234.16 283.362C1234.32 277.921 1230.07 273.393 1224.68 273.24C1219.29 273.087 1214.78 277.366 1214.62 282.807Z" fill="white" stroke="white"/>
<path d="M1007.96 270.513C1001.34 258.085 987.87 251.259 974.094 253.347L961.81 255.208L1036.54 391.338L1038.84 388.815L1043.74 382.628L1050.13 372.745V372.745C1054.12 365.91 1054.31 357.48 1050.64 350.59L1007.96 270.513Z" fill="#FFD53F"/>
<path d="M964.986 415.67C966.676 418.703 969.562 420.827 972.914 421.503V421.503C973.817 421.685 974.74 421.756 975.663 421.714L982.752 421.392C987.472 421.178 992.167 420.481 996.768 419.311L1001.04 418.224L922.69 274.228L919.562 276.727V276.727C916.369 280.09 913.443 283.711 910.815 287.554L909.809 289.025C908.619 290.765 907.574 292.605 906.686 294.523L906.552 294.81C904.017 300.285 904.231 306.644 907.125 311.837L964.986 415.67Z" fill="#FFD53F"/>
<path d="M1099.8 276.383C1099.6 283.562 1105.29 289.554 1112.53 289.76C1119.77 289.965 1125.8 284.306 1126 277.127C1126.21 269.948 1120.52 263.955 1113.28 263.75C1106.04 263.544 1100.01 269.203 1099.8 276.383Z" fill="white" stroke="white"/>
<path d="M1111.04 280.152C1110.95 283.183 1113.49 285.761 1116.77 285.854C1120.04 285.947 1122.72 283.517 1122.81 280.487C1122.9 277.456 1120.36 274.878 1117.09 274.785C1113.81 274.692 1111.13 277.122 1111.04 280.152Z" fill="black" stroke="white"/>
<path d="M1001.71 249.152V249.152C1018.32 230.41 1025.84 205.089 1022.25 179.924L1022.07 178.701L1019.11 166.77C1015.25 151.25 1002.57 139.467 986.981 136.908V136.908C983.98 136.415 980.937 136.29 977.917 136.536L975.524 136.731C960.591 137.947 946.748 144.834 936.765 156.013L935.779 157.116C932.512 160.775 929.64 164.778 927.211 169.058L923.539 175.529C911.689 196.41 918.479 223.292 938.885 236.288V236.288C941.929 238.226 945.858 236.157 945.989 232.546L946.149 228.119C946.945 206.19 935.331 185.526 916.214 174.855L901.45 166.614C895.401 163.237 888.935 160.711 882.234 159.106L880.151 158.607C875.928 157.595 871.62 157.024 867.295 156.901V156.901C852.503 156.481 838.526 163.299 829.749 175.217L824.746 182.011L822.823 185.276C813.422 201.238 816.331 221.835 829.821 234.828V234.828C849.783 254.056 873.65 268.618 899.697 277.462L912.154 281.692" stroke="white" stroke-width="10" stroke-linecap="round"/>
<path d="M1061.3 972.917L1076.67 942.339C1106.21 883.539 1110.16 815.246 1087.59 753.4L1078.81 729.345C1049.35 648.611 972.108 594.805 885.664 594.805L782.232 594.805C702.548 594.805 643.648 520.935 661.957 443.959L672.4 400.052C684.719 348.257 646.613 298.016 593.055 295.44L533.609 292.58C455.512 288.824 437.413 182.094 510 153.356V153.356" stroke="white" stroke-width="8" stroke-dasharray="16 25"/>
<path d="M324.9 1450.36C297.3 1450.36 270.6 1438.96 244.8 1416.16C219.6 1393.36 198.3 1360.36 180.9 1317.16C164.1 1273.96 154.2 1221.76 151.2 1160.56C132.6 1162.36 115.5 1163.26 99.9 1163.26C65.1 1163.26 39.6 1158.76 23.4 1149.76C7.8 1140.76 -1.27405e-06 1129.06 -1.27405e-06 1114.66C-1.27405e-06 1100.26 6.9 1084.36 20.7 1066.96C34.5 1049.56 53.7 1032.16 78.3 1014.76C102.9 996.756 131.7 980.556 164.7 966.156C176.1 904.956 194.4 838.956 219.6 768.156C245.4 696.756 279.9 621.156 323.1 541.356C327.3 533.556 333.6 529.656 342 529.656C347.4 529.656 352.2 531.456 356.4 535.056C360.6 538.656 362.7 543.456 362.7 549.456C362.7 552.456 361.8 556.356 360 561.156C321.6 638.556 289.5 709.656 263.7 774.456C238.5 838.656 218.7 897.456 204.3 950.856C231.3 940.656 260.1 932.256 290.7 925.656C321.3 919.056 352.5 915.156 384.3 913.956C392.7 913.956 396.9 915.156 396.9 917.556C396.9 919.956 393.9 922.356 387.9 924.756C382.5 926.556 373.2 927.756 360 928.356C330.6 930.156 302.4 934.356 275.4 940.956C249 946.956 224.1 954.456 200.7 963.456C191.7 998.256 184.8 1030.66 180 1060.66C175.2 1090.06 172.2 1117.36 171 1142.56C232.8 1129.36 288.9 1110.16 339.3 1084.96C390.3 1059.16 435.3 1029.46 474.3 995.856C513.3 962.256 546 927.456 572.4 891.456C589.2 868.656 601.2 848.556 608.4 831.156C616.2 813.156 620.1 797.556 620.1 784.356C620.1 765.156 614.1 750.156 602.1 739.356C590.1 727.956 574.2 719.856 554.4 715.056C534.6 709.656 513 706.956 489.6 706.956C465 706.956 440.1 709.356 414.9 714.156C389.7 718.356 366.9 724.356 346.5 732.156C341.7 733.356 338.4 733.956 336.6 733.956C328.8 733.956 324.9 731.256 324.9 725.856C324.9 720.456 328.2 716.256 334.8 713.256C408.6 671.256 461.1 633.156 492.3 598.956C523.5 564.756 539.1 535.956 539.1 512.556C539.1 492.156 529.5 476.556 510.3 465.756C491.7 454.356 467.1 448.656 436.5 448.656C412.5 448.656 385.5 452.556 355.5 460.356C325.5 468.156 294.6 480.756 262.8 498.156C236.4 512.556 212.4 529.656 190.8 549.456C169.8 568.656 151.8 588.756 136.8 609.756C122.4 630.156 111.6 649.656 104.4 668.256C97.2 686.256 94.5 701.556 96.3 714.156C96.3 715.356 96.3 716.856 96.3 718.656C96.9 719.856 97.2 721.056 97.2 722.256C97.2 737.256 92.7 744.756 83.7 744.756C79.5 744.756 75 741.756 70.2 735.756C66 729.756 63.9 720.756 63.9 708.756C63.9 690.756 69.3 671.556 80.1 651.156C91.5 630.756 106.5 610.356 125.1 589.956C144.3 568.956 165.6 549.456 189 531.456C212.4 512.856 236.7 496.956 261.9 483.756C294.3 466.356 326.1 453.456 357.3 445.056C389.1 436.656 418.2 432.456 444.6 432.456C481.2 432.456 510.9 439.656 533.7 454.056C556.5 468.456 567.9 488.556 567.9 514.356C567.9 538.356 556.2 566.256 532.8 598.056C509.4 629.856 470.1 664.956 414.9 703.356C433.5 700.356 450.9 698.256 467.1 697.056C483.3 695.256 498.3 694.356 512.1 694.356C563.7 694.356 600.9 703.056 623.7 720.456C647.1 737.256 658.8 759.156 658.8 786.156C658.8 805.956 653.1 827.556 641.7 850.956C630.9 873.756 615.6 897.456 595.8 922.056C567 957.456 530.7 991.656 486.9 1024.66C443.7 1057.66 395.1 1086.16 341.1 1110.16C287.7 1134.16 230.7 1150.36 170.1 1158.76C168.9 1212.16 173.7 1256.26 184.5 1291.06C195.9 1325.86 210.3 1352.86 227.7 1372.06C245.1 1391.86 262.5 1405.66 279.9 1413.46C297.3 1421.86 311.7 1426.06 323.1 1426.06C331.5 1426.06 337.2 1424.56 340.2 1421.56C342.6 1418.56 346.2 1417.06 351 1417.06C355.8 1417.06 360.3 1418.86 364.5 1422.46C368.7 1426.06 370.8 1429.96 370.8 1434.16C370.8 1437.76 368.7 1440.46 364.5 1442.26C351.3 1447.66 338.1 1450.36 324.9 1450.36ZM103.5 1151.56C110.1 1151.56 117.3 1150.96 125.1 1149.76C132.9 1149.16 141.3 1148.26 150.3 1147.06C149.7 1121.86 150.3 1095.46 152.1 1067.86C153.9 1040.26 157.2 1011.46 162 981.456C123.6 1001.26 93.3 1023.46 71.1 1048.06C48.9 1072.06 37.8 1093.36 37.8 1111.96C37.8 1123.36 43.2 1132.66 54 1139.86C64.8 1147.66 81.3 1151.56 103.5 1151.56ZM749.039 1124.56C727.439 1124.56 708.539 1111.96 692.339 1086.76C676.739 1060.96 668.939 1020.46 668.939 965.256C668.939 929.256 673.439 900.456 682.439 878.856C691.439 856.656 702.539 840.456 715.739 830.256C728.939 820.056 741.539 814.956 753.539 814.956C765.539 814.956 775.739 819.156 784.139 827.556C792.539 835.356 796.739 846.756 796.739 861.756C796.739 876.156 792.539 891.456 784.139 907.656C775.739 923.256 765.539 937.656 753.539 950.856C742.139 963.456 730.739 971.856 719.339 976.056C716.939 977.256 713.939 977.856 710.339 977.856C707.939 977.856 706.739 976.956 706.739 975.156C706.739 970.356 711.539 964.956 721.139 958.956C733.139 950.556 744.539 937.956 755.339 921.156C766.139 903.756 771.539 888.456 771.539 875.256C771.539 867.456 769.739 861.456 766.139 857.256C762.539 852.456 758.339 850.056 753.539 850.056C744.539 850.056 734.639 857.256 723.839 871.656C713.639 885.456 706.139 909.456 701.339 943.656C700.139 953.256 698.939 962.556 697.739 971.556C697.139 979.956 696.839 988.356 696.839 996.756C696.839 1030.36 701.939 1056.76 712.139 1075.96C722.339 1094.56 735.839 1103.86 752.639 1103.86C767.039 1103.86 783.239 1095.46 801.239 1078.66C819.239 1061.26 836.939 1034.26 854.339 997.656C858.539 988.056 863.339 983.256 868.739 983.256C872.339 983.256 874.139 985.656 874.139 990.456C874.139 994.656 872.939 999.156 870.539 1003.96C854.939 1042.36 836.039 1072.06 813.839 1093.06C791.639 1114.06 770.039 1124.56 749.039 1124.56ZM927.457 1124.56C905.857 1124.56 886.957 1111.96 870.757 1086.76C855.157 1060.96 847.357 1020.46 847.357 965.256C847.357 929.256 851.857 900.456 860.857 878.856C869.857 856.656 880.957 840.456 894.157 830.256C907.357 820.056 919.957 814.956 931.957 814.956C943.957 814.956 954.157 819.156 962.557 827.556C970.957 835.356 975.157 846.756 975.157 861.756C975.157 876.156 970.957 891.456 962.557 907.656C954.157 923.256 943.957 937.656 931.957 950.856C920.557 963.456 909.157 971.856 897.757 976.056C895.357 977.256 892.357 977.856 888.757 977.856C886.357 977.856 885.157 976.956 885.157 975.156C885.157 970.356 889.957 964.956 899.557 958.956C911.557 950.556 922.957 937.956 933.757 921.156C944.557 903.756 949.957 888.456 949.957 875.256C949.957 867.456 948.157 861.456 944.557 857.256C940.957 852.456 936.757 850.056 931.957 850.056C922.957 850.056 913.057 857.256 902.257 871.656C892.057 885.456 884.557 909.456 879.757 943.656C878.557 953.256 877.357 962.556 876.157 971.556C875.557 979.956 875.257 988.356 875.257 996.756C875.257 1030.36 880.357 1056.76 890.557 1075.96C900.757 1094.56 914.257 1103.86 931.057 1103.86C945.457 1103.86 961.657 1095.46 979.657 1078.66C997.657 1061.26 1015.36 1034.26 1032.76 997.656C1036.96 988.056 1041.76 983.256 1047.16 983.256C1050.76 983.256 1052.56 985.656 1052.56 990.456C1052.56 994.656 1051.36 999.156 1048.96 1003.96C1033.36 1042.36 1014.46 1072.06 992.257 1093.06C970.057 1114.06 948.457 1124.56 927.457 1124.56Z" fill="white"/>
</svg>
